<svg width="13" height="12" viewBox="0 0 13 12" fill="none" xmlns="http://www.w3.org/2000/svg">
<path d="M10 5V6C10 6.92826 9.63125 7.8185 8.97487 8.47487C8.3185 9.13125 7.42826 9.5 6.5 9.5M6.5 9.5C5.57174 9.5 4.6815 9.13125 4.02513 8.47487C3.36875 7.8185 3 6.92826 3 6V5M6.5 9.5V11.5M4.5 11.5H8.5M6.5 0.5C6.10218 0.5 5.72064 0.658035 5.43934 0.93934C5.15804 1.22064 5 1.60218 5 2V6C5 6.39782 5.15804 6.77936 5.43934 7.06066C5.72064 7.34196 6.10218 7.5 6.5 7.5C6.89782 7.5 7.27936 7.34196 7.56066 7.06066C7.84196 6.77936 8 6.39782 8 6V2C8 1.60218 7.84196 1.22064 7.56066 0.93934C7.27936 0.658035 6.89782 0.5 6.5 0.5Z" stroke="white" stroke-width="0.75" stroke-linecap="round" stroke-linejoin="round"/>
</svg>
