<svg width="17" height="17" viewBox="0 0 17 17" fill="none" xmlns="http://www.w3.org/2000/svg">
<path d="M11.3333 2.83334H12.75C13.1257 2.83334 13.486 2.98259 13.7517 3.24827C14.0174 3.51395 14.1666 3.87428 14.1666 4.25001V14.1667C14.1666 14.5424 14.0174 14.9027 13.7517 15.1684C13.486 15.4341 13.1257 15.5833 12.75 15.5833H4.24998C3.87426 15.5833 3.51392 15.4341 3.24825 15.1684C2.98257 14.9027 2.83331 14.5424 2.83331 14.1667V4.25001C2.83331 3.87428 2.98257 3.51395 3.24825 3.24827C3.51392 2.98259 3.87426 2.83334 4.24998 2.83334H5.66665M6.37498 1.41667H10.625C11.0162 1.41667 11.3333 1.7338 11.3333 2.12501V3.54167C11.3333 3.93287 11.0162 4.25001 10.625 4.25001H6.37498C5.98378 4.25001 5.66665 3.93287 5.66665 3.54167V2.12501C5.66665 1.7338 5.98378 1.41667 6.37498 1.41667Z" stroke="white" stroke-width="1.25" stroke-linecap="round" stroke-linejoin="round"/>
</svg>
